<?xml version="1.0"?>
<svg xmlns="http://www.w3.org/2000/svg" xmlns:xlink="http://www.w3.org/1999/xlink" version="1.1" id="Layer_1" x="0px" y="0px" viewBox="0 0 512.002 512.002" style="enable-background:new 0 0 512.002 512.002;" xml:space="preserve" width="512px" height="512px" class=""><g><path style="fill:#BEA579" d="M325.953,382.07H185.919c-13.686,0-24.781-11.095-24.781-24.781l0,0  c0-13.686,11.095-24.781,24.781-24.781h140.034c13.686,0,24.781,11.095,24.781,24.781l0,0  C350.735,370.975,339.64,382.07,325.953,382.07z" data-original="#FC4C59" class="" data-old_color="#FC4C59"/><path style="fill:#BEA579" d="M325.953,332.507H283.78c13.686,0,24.781,11.095,24.781,24.781c0,13.686-11.095,24.781-24.781,24.781  h42.174c13.686,0,24.781-11.095,24.781-24.781C350.735,343.602,339.64,332.507,325.953,332.507z" data-original="#E83A64" class="active-path" data-old_color="#E83A64"/><path style="fill:#BEA579" d="M281.913,332.507c15.814-57.905,38.14-137.236,38.14-198.643c0-76.704-64.117-125.479-64.117-125.479  S191.82,54.801,191.82,133.864c0,60.698,21.85,140.374,38.296,198.643H281.913z" data-original="#FFDB6C" class="" data-old_color="#FFDB6C"/><path style="fill:#BEA579" d="M255.936,8.385c0,0,38.265,70.69,38.265,125.479c0,61.408-22.327,140.738-38.14,198.643h25.851  c15.814-57.905,38.14-137.236,38.14-198.643C320.053,57.16,255.936,8.385,255.936,8.385z" data-original="#FFB04C" class="" data-old_color="#FFB04C"/><path style="fill:#BEA579" d="M285.439,421.798V382.07h-57.823v39.729H187.59v1.903c0,22.651,17.703,41.161,40.026,42.466v8.537  c0,15.967,12.944,28.911,28.911,28.911s28.911-12.944,28.911-28.911v-8.457h1.413c23.498,0,42.547-19.049,42.547-42.547v-1.903  H285.439z" data-original="#FFDB6C" class="" data-old_color="#FFDB6C"/><path style="fill:#BEA579" d="M300.99,421.798v1.903c0,23.498-19.049,42.547-42.547,42.547h-1.413v8.457  c0,10.803-5.929,20.216-14.707,25.178c4.197,2.372,9.039,3.733,14.204,3.733c15.967,0,28.911-12.944,28.911-28.911v-8.457h1.413  c23.498,0,42.547-19.049,42.547-42.547v-1.903H300.99z" data-original="#FFB04C" class="" data-old_color="#FFB04C"/><path style="fill:#BEA579" d="M325.953,332.507c0-40.647,23.601-90.471,81.774-83.305c19.154,2.359,40.261,19.414,41.644,38.665  c0.003,0.049,0.002,0.291,0.039,0.611c0.415,3.594,4.085,6.988,7.53,7.645c0.772,0.148,4.086,0.644,9.047-3.474  c5.935-4.927,16.687-18.502,18.488-40.384c0.549-6.662,1.393-27.778-11.679-48.426c-16.512-26.08-46.728-37.981-70.139-38.505  c-42.386-0.947-85.11,34.897-99.47,89.278c-7.091,25.965-14.183,51.932-21.275,77.897" data-original="#3CC247" class="" data-old_color="#3CC247"/><path style="fill:#BEA579" d="M399.617,208.353c-34.874-0.947-77.989,30.766-89.804,85.146c-3.35,14.913-3.318,23.476-4.251,39.019  h20.391c0-40.647,23.601-90.471,81.773-83.306c19.154,2.359,40.262,19.414,41.644,38.665c0.003,0.049,0.002,0.291,0.039,0.611  c0.415,3.594,4.085,6.988,7.53,7.645c0.646,0.123,3.076,0.481,6.758-1.815c0.482-2.796,0.861-5.744,1.073-8.883  c0.452-6.661,1.146-27.778-9.608-48.426C441.576,210.928,418.879,208.876,399.617,208.353z" data-original="#2DA85F" class="" data-old_color="#2DA85F"/><path style="fill:#BEA579" d="M186.046,332.517c0-40.647-23.601-90.471-81.774-83.305c-19.154,2.359-40.261,19.414-41.644,38.665  c-0.003,0.049-0.002,0.291-0.039,0.611c-0.415,3.594-4.085,6.988-7.53,7.645c-0.772,0.148-4.086,0.644-9.047-3.474  c-5.935-4.927-16.687-18.502-18.488-40.384c-0.549-6.662-1.393-27.778,11.679-48.426c16.512-26.08,46.728-37.981,70.139-38.505  c42.386-0.947,85.11,34.897,99.47,89.278c7.091,25.965,14.183,51.932,21.275,77.897" data-original="#3CC247" class="" data-old_color="#3CC247"/><path style="fill:#BEA579" d="M112.411,208.353c34.874-0.947,77.989,30.766,89.804,85.146c3.35,14.913,3.318,23.476,4.251,39.019  h-20.391c0-40.647-23.601-90.471-81.773-83.306c-19.154,2.359-40.261,19.414-41.644,38.665c-0.003,0.049-0.002,0.291-0.039,0.611  c-0.415,3.594-4.085,6.988-7.53,7.645c-0.646,0.123-3.076,0.481-6.758-1.815c-0.482-2.796-0.861-5.744-1.073-8.883  c-0.452-6.661-1.146-27.778,9.608-48.426C70.451,210.928,93.149,208.876,112.411,208.353z" data-original="#2DA85F" class="" data-old_color="#2DA85F"/><g>
	<circle style="fill:#BEA579" cx="205.379" cy="357.289" r="8.384" data-original="#FFDB6C" class="" data-old_color="#FFDB6C"/>
	<circle style="fill:#BEA579" cx="239.083" cy="357.289" r="8.384" data-original="#FFDB6C" class="" data-old_color="#FFDB6C"/>
	<circle style="fill:#BEA579" cx="272.788" cy="357.289" r="8.384" data-original="#FFDB6C" class="" data-old_color="#FFDB6C"/>
	<circle style="fill:#BEA579" cx="306.492" cy="357.289" r="8.384" data-original="#FFDB6C" class="" data-old_color="#FFDB6C"/>
</g><path style="fill:#BEA579" d="M285.405,382.07H257.03h-29.415v20.983h20.042c5.177,0,9.374,4.197,9.374,9.374l0,0  c0,5.177,4.197,9.374,9.374,9.374h19.034v-39.729h-0.032V382.07z" data-original="#FFB04C" class="" data-old_color="#FFB04C"/><path d="M479.88,199.353c-19.283-30.458-53.55-41.877-77.035-42.403c-30.106-0.672-59.277,15.173-80.422,41.161  c3.678-22.381,6.014-44.262,6.014-64.246c0-79.942-64.671-130.058-67.423-132.153c-2.943-2.238-7.002-2.285-9.993-0.118  c-0.696,0.504-17.258,12.611-33.862,34.869c-22.062,29.573-33.722,63.254-33.722,97.402c0,19.837,2.317,41.734,5.94,64.032  c-21.142-25.86-50.234-41.6-80.221-40.936c-23.485,0.525-57.753,11.946-77.036,42.403c-13.369,21.117-13.853,42.645-12.95,53.598  c2.38,28.919,18.318,43.515,21.488,46.148c7.08,5.878,13.049,5.818,15.972,5.26c7.205-1.374,13.482-7.926,14.289-14.918  c0.054-0.467,0.075-0.861,0.084-1.122c1.2-15.123,19.375-28.956,34.296-30.793c38.04-4.69,56.087,17.249,64.527,36.475  c1.862,4.24,6.81,6.17,11.047,4.307c4.24-1.861,6.169-6.807,4.307-11.047c-14.946-34.045-44.81-50.949-81.931-46.377  c-11.126,1.371-22.799,6.856-32.028,15.05C61.123,264.909,55.107,276,54.271,287.23c-0.134,0.171-0.347,0.369-0.525,0.506  c-0.433-0.171-1.233-0.579-2.376-1.528c-1.388-1.153-13.619-11.918-15.487-34.622c-0.587-7.134-0.749-25.632,10.406-43.252  c14.726-23.26,42.375-34.142,63.242-34.608c39.906-0.857,78.235,34.031,91.195,83.105l7.207,26.389  c3.827,14.743,7.653,28.581,11.113,40.905h-33.124c-18.288,0-33.166,14.878-33.166,33.166s14.878,33.164,33.166,33.164h33.311v22.96  h-31.642c-4.63,0-8.384,3.754-8.384,8.384v1.903c0,24.234,17.038,44.739,40.026,49.753v1.251c0,20.565,16.73,37.296,37.295,37.296  s37.296-16.73,37.296-37.296v-0.548c24.798-3.407,43.959-24.736,43.959-50.455v-1.903c0-4.63-3.753-8.384-8.384-8.384h-35.575  v-22.96h32.13c18.288,0,33.166-14.878,33.166-33.164s-14.878-33.166-33.166-33.166h-33.057c0.712-2.605,1.434-5.25,2.164-7.933  l16.233-59.439c12.781-48.396,50.33-83.054,89.683-83.054c0.495,0,0.997,0.006,1.493,0.017  c20.869,0.466,48.517,11.349,63.242,34.609c11.155,17.618,10.994,36.118,10.408,43.252c-1.869,22.704-14.099,33.467-15.487,34.621  c-1.13,0.938-1.926,1.347-2.36,1.521c-0.201-0.143-0.41-0.336-0.541-0.503c-0.818-11.198-6.837-22.306-16.949-31.286  c-9.228-8.194-20.902-13.68-32.028-15.05c-37.376-4.599-67.326,12.515-82.186,46.964c-1.834,4.251,0.125,9.186,4.378,11.019  c4.252,1.834,9.186-0.126,11.019-4.378c8.396-19.467,26.456-41.683,64.738-36.962c14.928,1.839,33.113,15.684,34.297,30.815  c0.01,0.254,0.03,0.641,0.084,1.1c0.807,6.991,7.083,13.546,14.286,14.919c2.926,0.559,8.895,0.619,15.975-5.26  c3.17-2.632,19.107-17.228,21.488-46.148C493.732,241.997,493.248,220.467,479.88,199.353z M255.83,19.284  c14.53,13.052,55.839,55.376,55.839,114.581c0,53.922-17.994,123.557-32.767,177.84l-3.392,12.419h-39.026l-12.335-45.165  c-12.011-46.273-23.945-101.31-23.945-145.093C200.204,72.942,241.285,31.901,255.83,19.284z M285.439,430.183h34.958  c-3.037,15.749-16.924,27.68-33.546,27.68h-1.413c-4.631,0-8.384,3.754-8.384,8.384v8.457c0,11.319-9.208,20.528-20.528,20.528  c-11.319,0-20.527-9.208-20.527-20.528v-8.537c0-4.44-3.462-8.11-7.896-8.37c-15.809-0.924-28.614-12.57-31.514-27.614h31.025  c4.63,0,8.384-3.754,8.384-8.384v-31.345h41.055v31.345C277.055,426.429,280.807,430.183,285.439,430.183z M342.351,357.288  c0,9.042-7.356,16.396-16.397,16.396h-40.515h-57.823h-41.695c-9.042,0-16.397-7.356-16.397-16.396  c0-9.04,7.356-16.397,16.397-16.397h44.016c0.049,0.001,0.096,0.012,0.145,0.012c0.059,0,0.121-0.011,0.18-0.012h51.624  c0.011,0,0.022,0.002,0.032,0.002c0.009,0,0.018-0.002,0.027-0.002h44.009C334.995,340.891,342.351,348.247,342.351,357.288z" data-original="#000000" class=""/><circle cx="205.379" cy="357.289" r="8.384" data-original="#000000" class=""/><circle cx="239.083" cy="357.289" r="8.384" data-original="#000000" class=""/><circle cx="272.788" cy="357.289" r="8.384" data-original="#000000" class=""/><circle cx="306.492" cy="357.289" r="8.384" data-original="#000000" class=""/></g> </svg>
